# xmcd
#
# Track frame offsets:
#	150
#	15759
#	30940
#	48563
#	66407
#	81750
#	98471
#	114430
#	133082
#	150775
#	165536
#	183022
#
# Disc length: 2707 seconds
#
# Revision: 2
# Processed by: cddbd v1.5.2PL0 Copyright (c) Steve Scherf et al.
# Submitted via: EasyCDDAExtractor 15.3.0.1
#
DISCID=7b0a910c
DTITLE=Alex Ubago - Mentiras Sinceras
DYEAR=2013
DGENRE=Latin
TTITLE0=Ella Vive En Mi
TTITLE1=Dueños De Este Mundo
TTITLE2=Nunca Deje De Creer (En Tu Amor)
TTITLE3=Destinados
TTITLE4=No Me Dejes Afuera
TTITLE5=Detras De Un Cristal
TTITLE6=Amores De Papel
TTITLE7=Mientras Tu Me Quieras
TTITLE8=Puedes Ser Tu
TTITLE9=Mentiras Sinceras
TTITLE10=Estar Contigo
TTITLE11=Para Aprenderte
EXTD=YEAR: 2013
EXTT0=
EXTT1=
EXTT2=
EXTT3=
EXTT4=
EXTT5=
EXTT6=
EXTT7=
EXTT8=
EXTT9=
EXTT10=
EXTT11=
PLAYORDER=
